<?xml version="1.0" encoding="UTF-8" standalone="no"?>
<!DOCTYPE svg PUBLIC "-//W3C//DTD SVG 1.1//EN" "http://www.w3.org/Graphics/SVG/1.1/DTD/svg11.dtd">
<svg width="100%" height="100%" viewBox="0 0 512 128" version="1.1" xmlns="http://www.w3.org/2000/svg" xmlns:xlink="http://www.w3.org/1999/xlink" xml:space="preserve" xmlns:serif="http://www.serif.com/" style="fill-rule:evenodd;clip-rule:evenodd;stroke-linecap:round;stroke-linejoin:round;">
    <rect x="0" y="0" width="512" height="128" style="fill:white;"/>
    <g transform="matrix(2.11837,0,0,2.11837,-118.873,-207.258)">
        <g transform="matrix(1,0,0,1,216,87.7441)">
            <path d="M32.126,56.256L4.152,56.256C4.068,56.256 4,56.324 4,56.408C4,60.742 7.514,64.256 11.848,64.256L68.152,64.256C72.486,64.256 76,60.742 76,56.408C76,56.324 75.932,56.256 75.848,56.256L47.874,56.256C47.43,57.981 45.864,59.256 44,59.256L36,59.256C34.136,59.256 32.57,57.981 32.126,56.256Z" style="fill:white;fill-rule:nonzero;stroke:rgb(0,58,43);stroke-width:1.76px;"/>
        </g>
        <g transform="matrix(1,0,0,1,216,87.7441)">
            <path d="M12,56.256L12,20.256C12,18.047 13.791,16.256 16,16.256L64,16.256C66.209,16.256 68,18.047 68,20.256L68,56.256" style="fill:none;fill-rule:nonzero;"/>
            <clipPath id="_clip1">
                <path d="M12,56.256L12,20.256C12,18.047 13.791,16.256 16,16.256L64,16.256C66.209,16.256 68,18.047 68,20.256L68,56.256" clip-rule="nonzero"/>
            </clipPath>
            <g clip-path="url(#_clip1)">
                <g transform="matrix(0.433434,0,0,0.809271,-71.3643,8.03577)">
                    <rect x="192.335" y="28.74" width="127.657" height="32.944" style="fill:white;"/>
                </g>
                <g transform="matrix(0.428608,0,0,0.433341,-69.7259,4.62815)">
                    <rect x="192.335" y="28.74" width="127.657" height="32.944" style="fill:url(#_Linear2);"/>
                </g>
                <g transform="matrix(0.377624,0,0,0.377624,-63.6273,8.33167)">
                    <text x="282.783px" y="53.413px" style="font-family:'Akshar-Medium', 'Akshar';font-weight:500;font-size:6px;fill:white;">A PROPOS DE</text>
                    <rect x="282.783" y="54.013" width="29.166" height="0.3" style="fill:white;"/>
                </g>
                <g transform="matrix(0.0627975,0,0,0.0627975,28.7442,15.9654)">
                    <g transform="matrix(5.0581,0,0,5.0581,5.99896,23.2085)">
                        <path d="M20.247,3.034C20.178,3.016 18.505,2.601 16.195,2.601C13.353,2.601 9.327,3.241 6.285,6.288C0.945,11.637 2.945,19.898 3.033,20.248C3.123,20.605 3.403,20.885 3.761,20.974C3.83,20.992 5.487,21.4 7.779,21.4C10.628,21.4 14.663,20.759 17.711,17.712C23.046,12.377 21.062,4.112 20.975,3.763C20.885,3.405 20.605,3.125 20.247,3.034ZM16.71,12.296L15.296,13.71L13.503,11.918L11.917,13.504L13.709,15.297L12.295,16.711L10.503,14.918L8.71,16.711L7.296,15.297L9.089,13.504L7.296,11.71L8.71,10.296L10.503,12.09L12.089,10.504L10.295,8.711L11.709,7.297L13.503,9.09L15.296,7.297L16.71,8.711L14.917,10.504L16.71,12.296Z" style="fill-rule:nonzero;"/>
                    </g>
                    <g transform="matrix(5.0581,0,0,5.0581,1.15358,18.3433)">
                        <path d="M20.247,3.034C20.178,3.016 18.505,2.601 16.195,2.601C13.353,2.601 9.327,3.241 6.285,6.288C0.945,11.637 2.945,19.898 3.033,20.248C3.123,20.605 3.403,20.885 3.761,20.974C3.83,20.992 5.487,21.4 7.779,21.4C10.628,21.4 14.663,20.759 17.711,17.712C23.046,12.377 21.062,4.112 20.975,3.763C20.885,3.405 20.605,3.125 20.247,3.034ZM16.71,12.296L15.296,13.71L13.503,11.918L11.917,13.504L13.709,15.297L12.295,16.711L10.503,14.918L8.71,16.711L7.296,15.297L9.089,13.504L7.296,11.71L8.71,10.296L10.503,12.09L12.089,10.504L10.295,8.711L11.709,7.297L13.503,9.09L15.296,7.297L16.71,8.711L14.917,10.504L16.71,12.296Z" style="fill:white;fill-rule:nonzero;"/>
                    </g>
                </g>
            </g>
            <path d="M12,56.256L12,20.256C12,18.047 13.791,16.256 16,16.256L64,16.256C66.209,16.256 68,18.047 68,20.256L68,56.256" style="fill:none;fill-rule:nonzero;stroke:rgb(0,58,43);stroke-width:1.76px;"/>
        </g>
    </g>
    <g transform="matrix(2.99139,0,0,2.99139,-62.0261,-258.707)">
        <text x="24.235px" y="96.42px" style="font-family:'Inter-Black', 'Inter';font-weight:900;font-size:5.505px;">① Pr<tspan x="38.803px " y="96.42px ">o</tspan>jet Django</text>
    </g>
    <g transform="matrix(1.37228,0,0,1.37228,-274.828,3.25986)">
        <g transform="matrix(2.17987,0,0,2.17987,203.027,-176.252)">
            <text x="24.235px" y="96.42px" style="font-family:'Inter-Black', 'Inter';font-weight:900;font-size:3.67px;">/orm/</text>
        </g>
        <g transform="matrix(0.239909,0,0,0.239909,163.664,17.3153)">
            <g transform="matrix(1,0,0,1,297.713,15.5345)">
                <path d="M16.104,40.309C17.241,37.125 20.257,35 23.638,35L68.324,35C71.09,35 73.021,37.74 72.091,40.345L64.948,60.345C64.38,61.937 62.872,63 61.181,63L10.838,63C9.455,63 8.489,61.63 8.955,60.327L16.104,40.309Z" style="fill:none;fill-rule:nonzero;stroke:black;stroke-width:5px;"/>
            </g>
            <g transform="matrix(1,0,0,1,297.713,15.5345)">
                <path d="M64,35L64,29C64,26.791 62.209,25 60,25L31.399,25C31.033,25 30.689,24.823 30.476,24.525L26.284,18.671C25.533,17.622 24.322,17 23.032,17L12,17C9.791,17 8,18.791 8,21L8,59C8,59.966 8.342,60.851 8.912,61.542" style="fill:none;fill-rule:nonzero;stroke:black;stroke-width:5px;"/>
            </g>
        </g>
    </g>
    <g transform="matrix(0.159398,0,0,0.124948,398.203,9.94744)">
        <path d="M292.815,66.239C292.815,60.243 289,55.376 284.3,55.376L150.366,55.376C136.268,55.376 124.821,69.978 124.821,87.964L124.821,153.14C124.821,159.135 128.637,164.003 133.336,164.003L267.271,164.003C281.369,164.003 292.815,149.4 292.815,131.415L292.815,66.239Z"/>
    </g>
    <defs>
        <linearGradient id="_Linear2" x1="0" y1="0" x2="1" y2="0" gradientUnits="userSpaceOnUse" gradientTransform="matrix(2.04521e-15,-33.036,33.4009,2.02287e-15,256.006,61.776)"><stop offset="0" style="stop-color:rgb(253,36,99);stop-opacity:1"/><stop offset="1" style="stop-color:rgb(246,157,0);stop-opacity:0.35"/></linearGradient>
    </defs>
</svg>
