<?xml version="1.0" encoding="UTF-8" standalone="no"?>
<!DOCTYPE svg PUBLIC "-//W3C//DTD SVG 1.1//EN" "http://www.w3.org/Graphics/SVG/1.1/DTD/svg11.dtd">
<svg width="100%" height="100%" viewBox="0 0 298 99" version="1.1" xmlns="http://www.w3.org/2000/svg" xmlns:xlink="http://www.w3.org/1999/xlink" xml:space="preserve" xmlns:serif="http://www.serif.com/" style="fill-rule:evenodd;clip-rule:evenodd;stroke-linejoin:round;stroke-miterlimit:2;">
    <g transform="matrix(1,0,0,1,-51.421,-30.5632)">
        <g transform="matrix(1.09029,0,0,0.910213,29.3244,-19.8406)">
            <path d="M292.815,66.239C292.815,60.243 288.752,55.376 283.747,55.376L152.027,55.376C137.012,55.376 124.821,69.978 124.821,87.964L124.821,153.14C124.821,159.135 128.885,164.003 133.89,164.003L265.61,164.003C280.625,164.003 292.815,149.4 292.815,131.415L292.815,66.239Z"/>
        </g>
        <g transform="matrix(0.623799,0,0,0.623799,102.841,-173.215)">
            <g transform="matrix(43.5298,0,0,43.5298,128.54,381.087)">
                <path d="M0.329,-0L0.201,-0.344L0.294,-0.344L0.422,-0L0.329,-0ZM0.119,-0.299L0.119,-0.377L0.221,-0.377L0.221,-0.299L0.119,-0.299ZM0.119,-0.626L0.119,-0.705L0.221,-0.705L0.221,-0.626L0.119,-0.626ZM0.327,-0.485L0.327,-0.519L0.418,-0.519L0.418,-0.485L0.327,-0.485ZM0.418,-0.518L0.327,-0.518C0.327,-0.553 0.318,-0.579 0.299,-0.598C0.28,-0.617 0.253,-0.626 0.22,-0.626L0.22,-0.705C0.259,-0.705 0.294,-0.697 0.324,-0.682C0.353,-0.666 0.376,-0.644 0.393,-0.616C0.41,-0.587 0.418,-0.555 0.418,-0.518ZM0.418,-0.486C0.418,-0.449 0.41,-0.417 0.393,-0.389C0.376,-0.36 0.353,-0.338 0.324,-0.323C0.294,-0.307 0.259,-0.299 0.22,-0.299L0.22,-0.377C0.253,-0.377 0.28,-0.387 0.299,-0.406C0.318,-0.425 0.327,-0.452 0.327,-0.486L0.418,-0.486ZM0.06,-0L0.06,-0.705L0.151,-0.705L0.151,-0L0.06,-0Z" style="fill:white;fill-rule:nonzero;"/>
            </g>
            <g transform="matrix(43.5298,0,0,43.5298,148.651,381.087)">
                <path d="M0.417,-0.505L0.417,-0L0.326,-0L0.326,-0.505L0.417,-0.505ZM0.136,-0.505L0.136,-0.161L0.045,-0.161L0.045,-0.505L0.136,-0.505ZM0.136,-0.161C0.136,-0.133 0.145,-0.11 0.163,-0.093C0.18,-0.075 0.203,-0.066 0.23,-0.066L0.207,0.015C0.176,0.015 0.148,0.007 0.124,-0.008C0.099,-0.023 0.08,-0.044 0.066,-0.071C0.052,-0.098 0.045,-0.128 0.045,-0.161L0.136,-0.161ZM0.366,-0.164C0.366,-0.13 0.359,-0.1 0.345,-0.073C0.332,-0.046 0.313,-0.024 0.289,-0.009C0.264,0.007 0.237,0.015 0.207,0.015L0.23,-0.066C0.258,-0.066 0.281,-0.075 0.299,-0.093C0.317,-0.111 0.326,-0.135 0.326,-0.164L0.366,-0.164Z" style="fill:white;fill-rule:nonzero;"/>
            </g>
            <g transform="matrix(43.5298,0,0,43.5298,169.328,381.087)">
                <path d="M0.326,0.018L0.326,-0.505L0.417,-0.505L0.417,0.018L0.326,0.018ZM0.045,-0.174L0.045,-0.344L0.136,-0.344L0.136,-0.174L0.045,-0.174ZM0.136,-0.344L0.045,-0.344C0.045,-0.377 0.052,-0.407 0.066,-0.434C0.08,-0.461 0.099,-0.482 0.124,-0.497C0.148,-0.512 0.176,-0.52 0.207,-0.52L0.23,-0.439C0.203,-0.439 0.18,-0.43 0.163,-0.412C0.145,-0.395 0.136,-0.372 0.136,-0.344ZM0.366,-0.342L0.326,-0.342C0.326,-0.371 0.317,-0.394 0.299,-0.412C0.281,-0.43 0.258,-0.439 0.23,-0.439L0.207,-0.52C0.237,-0.52 0.264,-0.512 0.289,-0.497C0.313,-0.482 0.332,-0.461 0.345,-0.434C0.359,-0.406 0.366,-0.376 0.366,-0.342ZM0.136,-0.174C0.136,-0.146 0.145,-0.123 0.163,-0.106C0.18,-0.088 0.203,-0.079 0.23,-0.079L0.207,0.002C0.176,0.002 0.148,-0.006 0.124,-0.021C0.099,-0.036 0.08,-0.057 0.066,-0.084C0.052,-0.111 0.045,-0.141 0.045,-0.174L0.136,-0.174ZM0.366,-0.177C0.366,-0.143 0.359,-0.113 0.345,-0.086C0.332,-0.059 0.313,-0.037 0.289,-0.021C0.264,-0.006 0.237,0.002 0.207,0.002L0.23,-0.079C0.258,-0.079 0.281,-0.088 0.299,-0.106C0.317,-0.124 0.326,-0.148 0.326,-0.177L0.366,-0.177ZM0.417,0.015C0.417,0.049 0.409,0.079 0.393,0.106C0.377,0.133 0.355,0.155 0.327,0.17C0.299,0.186 0.267,0.194 0.232,0.194L0.232,0.115C0.259,0.115 0.282,0.105 0.3,0.086C0.317,0.067 0.326,0.044 0.326,0.015L0.417,0.015ZM0.137,0.028C0.14,0.057 0.151,0.079 0.169,0.093C0.187,0.108 0.208,0.115 0.232,0.115L0.232,0.194C0.201,0.194 0.173,0.188 0.147,0.175C0.121,0.162 0.1,0.145 0.084,0.122C0.067,0.099 0.057,0.074 0.053,0.045L0.137,0.028Z" style="fill:white;fill-rule:nonzero;"/>
            </g>
            <g transform="matrix(43.5298,0,0,43.5298,190.004,381.087)">
                <path d="M0.06,-0.504L0.06,-0.705L0.151,-0.705L0.151,-0.504L0.06,-0.504ZM0.151,-0L0.06,-0L0.06,-0.505L0.151,-0.505L0.151,-0ZM0.432,-0.161L0.341,-0.161L0.341,-0.344L0.432,-0.344L0.432,-0.161ZM0.341,-0.344C0.341,-0.372 0.332,-0.395 0.315,-0.412C0.298,-0.43 0.275,-0.439 0.248,-0.439L0.271,-0.52C0.302,-0.52 0.329,-0.512 0.354,-0.497C0.378,-0.482 0.397,-0.461 0.411,-0.434C0.425,-0.407 0.432,-0.377 0.432,-0.344L0.341,-0.344ZM0.111,-0.342C0.111,-0.376 0.118,-0.406 0.132,-0.434C0.146,-0.461 0.165,-0.482 0.189,-0.497C0.213,-0.512 0.24,-0.52 0.271,-0.52L0.248,-0.439C0.219,-0.439 0.196,-0.43 0.178,-0.412C0.16,-0.394 0.151,-0.371 0.151,-0.342L0.111,-0.342ZM0.341,-0.161L0.432,-0.161C0.432,-0.128 0.425,-0.098 0.411,-0.071C0.397,-0.044 0.378,-0.023 0.354,-0.008C0.329,0.007 0.302,0.015 0.271,0.015L0.248,-0.066C0.275,-0.066 0.298,-0.075 0.315,-0.093C0.332,-0.11 0.341,-0.133 0.341,-0.161ZM0.111,-0.164L0.151,-0.164C0.151,-0.135 0.16,-0.111 0.178,-0.093C0.196,-0.075 0.219,-0.066 0.248,-0.066L0.271,0.015C0.24,0.015 0.213,0.007 0.189,-0.009C0.165,-0.024 0.146,-0.046 0.132,-0.073C0.118,-0.1 0.111,-0.13 0.111,-0.164Z" style="fill:white;fill-rule:nonzero;"/>
            </g>
            <g transform="matrix(43.5298,0,0,43.5298,210.768,381.087)">
                <path d="M0.064,0.185L0.083,0.11C0.109,0.117 0.131,0.115 0.148,0.105C0.165,0.095 0.179,0.074 0.189,0.043L0.273,0.043C0.253,0.106 0.226,0.148 0.191,0.171C0.156,0.194 0.113,0.198 0.064,0.185ZM0.189,0.043L0.36,-0.505L0.451,-0.505L0.273,0.043L0.189,0.043ZM0.206,0.037L0.03,-0.505L0.121,-0.505L0.251,-0.09L0.206,0.037Z" style="fill:white;fill-rule:nonzero;"/>
            </g>
            <g transform="matrix(42.027,0,0,42.027,128.54,423.114)">
                <path d="M0.02,-0.605L0.02,-0.715L0.485,-0.715L0.485,-0.605L0.02,-0.605ZM0.182,-0L0.182,-0.715L0.323,-0.715L0.323,-0L0.182,-0Z" style="fill:white;fill-rule:nonzero;"/>
            </g>
            <g transform="matrix(42.027,0,0,42.027,149.764,423.114)">
                <path d="M0.347,-0L0.222,-0.335L0.359,-0.335L0.485,-0L0.347,-0ZM0.184,-0.274L0.184,-0.384L0.251,-0.384L0.251,-0.274L0.184,-0.274ZM0.184,-0.605L0.184,-0.715L0.251,-0.715L0.251,-0.605L0.184,-0.605ZM0.332,-0.475L0.332,-0.514L0.473,-0.514L0.473,-0.475L0.332,-0.475ZM0.473,-0.513L0.332,-0.513C0.332,-0.542 0.325,-0.565 0.31,-0.581C0.295,-0.597 0.275,-0.605 0.25,-0.605L0.25,-0.715C0.293,-0.715 0.331,-0.706 0.365,-0.689C0.398,-0.672 0.425,-0.648 0.444,-0.617C0.463,-0.586 0.473,-0.552 0.473,-0.513ZM0.473,-0.476C0.473,-0.437 0.463,-0.403 0.444,-0.372C0.425,-0.341 0.398,-0.317 0.365,-0.3C0.331,-0.283 0.293,-0.274 0.25,-0.274L0.25,-0.384C0.275,-0.384 0.295,-0.392 0.31,-0.408C0.325,-0.424 0.332,-0.447 0.332,-0.476L0.473,-0.476ZM0.06,-0L0.06,-0.715L0.201,-0.715L0.201,-0L0.06,-0Z" style="fill:white;fill-rule:nonzero;"/>
            </g>
            <g transform="matrix(42.027,0,0,42.027,171.828,423.114)">
                <path d="M0.358,-0.187L0.358,-0.529L0.499,-0.529L0.499,-0.187L0.358,-0.187ZM0.055,-0.187L0.055,-0.529L0.196,-0.529L0.196,-0.187L0.055,-0.187ZM0.499,-0.528L0.358,-0.528C0.358,-0.557 0.351,-0.58 0.336,-0.596C0.321,-0.612 0.301,-0.62 0.276,-0.62L0.276,-0.73C0.319,-0.73 0.357,-0.721 0.391,-0.704C0.424,-0.687 0.451,-0.663 0.47,-0.632C0.489,-0.601 0.499,-0.567 0.499,-0.528ZM0.055,-0.528C0.055,-0.567 0.065,-0.601 0.084,-0.632C0.103,-0.663 0.13,-0.687 0.164,-0.704C0.197,-0.721 0.235,-0.73 0.278,-0.73L0.278,-0.62C0.253,-0.62 0.233,-0.612 0.218,-0.596C0.203,-0.58 0.196,-0.557 0.196,-0.528L0.055,-0.528ZM0.499,-0.188C0.499,-0.149 0.489,-0.114 0.47,-0.084C0.451,-0.053 0.424,-0.029 0.391,-0.012C0.357,0.006 0.319,0.015 0.276,0.015L0.276,-0.095C0.301,-0.095 0.321,-0.103 0.336,-0.119C0.351,-0.136 0.358,-0.159 0.358,-0.188L0.499,-0.188ZM0.055,-0.188L0.196,-0.188C0.196,-0.159 0.203,-0.136 0.218,-0.119C0.233,-0.103 0.253,-0.095 0.278,-0.095L0.278,0.015C0.235,0.015 0.197,0.006 0.164,-0.012C0.13,-0.029 0.103,-0.053 0.084,-0.084C0.065,-0.114 0.055,-0.149 0.055,-0.188Z" style="fill:white;fill-rule:nonzero;"/>
            </g>
            <g transform="matrix(42.027,0,0,42.027,195.111,423.114)">
                <path d="M0.184,-0.605L0.184,-0.715L0.251,-0.715L0.251,-0.605L0.184,-0.605ZM0.184,-0.256L0.184,-0.366L0.251,-0.366L0.251,-0.256L0.184,-0.256ZM0.332,-0.457L0.332,-0.513L0.473,-0.513L0.473,-0.457L0.332,-0.457ZM0.473,-0.513L0.332,-0.513C0.332,-0.542 0.325,-0.565 0.31,-0.581C0.295,-0.597 0.275,-0.605 0.25,-0.605L0.25,-0.715C0.293,-0.715 0.331,-0.706 0.365,-0.689C0.398,-0.672 0.425,-0.648 0.444,-0.617C0.463,-0.586 0.473,-0.552 0.473,-0.513ZM0.473,-0.458C0.473,-0.419 0.463,-0.385 0.444,-0.354C0.425,-0.323 0.398,-0.299 0.365,-0.282C0.331,-0.265 0.293,-0.256 0.25,-0.256L0.25,-0.366C0.275,-0.366 0.295,-0.374 0.31,-0.391C0.325,-0.407 0.332,-0.429 0.332,-0.458L0.473,-0.458ZM0.06,-0L0.06,-0.715L0.201,-0.715L0.201,-0L0.06,-0Z" style="fill:white;fill-rule:nonzero;"/>
            </g>
            <g transform="matrix(42.027,0,0,42.027,216.25,423.114)">
                <rect x="0.07" y="-0.715" width="0.141" height="0.715" style="fill:white;fill-rule:nonzero;"/>
            </g>
            <g transform="matrix(42.027,0,0,42.027,228.06,423.114)">
                <path d="M0.05,-0.186L0.05,-0.529L0.191,-0.529L0.191,-0.186L0.05,-0.186ZM0.05,-0.529C0.05,-0.568 0.06,-0.602 0.079,-0.633C0.098,-0.664 0.125,-0.688 0.159,-0.705C0.192,-0.722 0.23,-0.731 0.273,-0.731L0.273,-0.621C0.248,-0.621 0.228,-0.613 0.213,-0.597C0.198,-0.581 0.191,-0.558 0.191,-0.529L0.05,-0.529ZM0.05,-0.187L0.191,-0.187C0.191,-0.158 0.198,-0.135 0.213,-0.118C0.228,-0.102 0.248,-0.094 0.273,-0.094L0.273,0.016C0.23,0.016 0.192,0.007 0.159,-0.011C0.125,-0.028 0.098,-0.052 0.079,-0.083C0.06,-0.113 0.05,-0.148 0.05,-0.187ZM0.372,-0.497C0.369,-0.536 0.359,-0.566 0.342,-0.588C0.324,-0.61 0.301,-0.621 0.272,-0.621L0.272,-0.731C0.337,-0.731 0.389,-0.713 0.429,-0.676C0.468,-0.639 0.492,-0.587 0.499,-0.52L0.372,-0.497ZM0.372,-0.218L0.499,-0.196C0.492,-0.129 0.468,-0.077 0.429,-0.04C0.389,-0.003 0.337,0.016 0.272,0.016L0.272,-0.094C0.301,-0.094 0.324,-0.105 0.342,-0.127C0.359,-0.149 0.369,-0.179 0.372,-0.218Z" style="fill:white;fill-rule:nonzero;"/>
            </g>
            <g transform="matrix(42.027,0,0,42.027,249.998,423.114)">
                <path d="M0.166,-0.122L0.166,-0.232L0.422,-0.232L0.422,-0.122L0.166,-0.122ZM0.343,-0.715L0.167,-0L0.03,-0L0.207,-0.715L0.343,-0.715ZM0.345,-0.715L0.522,-0L0.386,-0L0.209,-0.715L0.345,-0.715Z" style="fill:white;fill-rule:nonzero;"/>
            </g>
            <g transform="matrix(42.027,0,0,42.027,272.567,423.114)">
                <path d="M0.171,-0L0.171,-0.11L0.413,-0.11L0.413,-0L0.171,-0ZM0.06,-0L0.06,-0.715L0.201,-0.715L0.201,-0L0.06,-0Z" style="fill:white;fill-rule:nonzero;"/>
            </g>
            <g transform="matrix(42.027,0,0,42.027,299.296,423.114)">
                <path d="M0.05,-0.186L0.05,-0.529L0.191,-0.529L0.191,-0.186L0.05,-0.186ZM0.05,-0.529C0.05,-0.568 0.06,-0.602 0.079,-0.633C0.098,-0.664 0.125,-0.688 0.159,-0.705C0.192,-0.722 0.23,-0.731 0.273,-0.731L0.273,-0.621C0.248,-0.621 0.228,-0.613 0.213,-0.597C0.198,-0.581 0.191,-0.558 0.191,-0.529L0.05,-0.529ZM0.05,-0.187L0.191,-0.187C0.191,-0.158 0.198,-0.135 0.213,-0.118C0.228,-0.102 0.248,-0.094 0.273,-0.094L0.273,0.016C0.23,0.016 0.192,0.007 0.159,-0.011C0.125,-0.028 0.098,-0.052 0.079,-0.083C0.06,-0.113 0.05,-0.148 0.05,-0.187ZM0.372,-0.497C0.369,-0.536 0.359,-0.566 0.342,-0.588C0.324,-0.61 0.301,-0.621 0.272,-0.621L0.272,-0.731C0.337,-0.731 0.389,-0.713 0.429,-0.676C0.468,-0.639 0.492,-0.587 0.499,-0.52L0.372,-0.497ZM0.372,-0.218L0.499,-0.196C0.492,-0.129 0.468,-0.077 0.429,-0.04C0.389,-0.003 0.337,0.016 0.272,0.016L0.272,-0.094C0.301,-0.094 0.324,-0.105 0.342,-0.127C0.359,-0.149 0.369,-0.179 0.372,-0.218Z" style="fill:white;fill-rule:nonzero;"/>
            </g>
            <g transform="matrix(42.027,0,0,42.027,321.528,423.114)">
                <path d="M0.362,-0.186L0.362,-0.715L0.503,-0.715L0.503,-0.186L0.362,-0.186ZM0.06,-0.186L0.06,-0.715L0.201,-0.715L0.201,-0.186L0.06,-0.186ZM0.503,-0.187C0.503,-0.148 0.493,-0.113 0.474,-0.083C0.455,-0.052 0.428,-0.028 0.395,-0.011C0.362,0.007 0.324,0.016 0.281,0.016L0.281,-0.095C0.306,-0.095 0.326,-0.103 0.341,-0.119C0.355,-0.135 0.362,-0.158 0.362,-0.187L0.503,-0.187ZM0.06,-0.187L0.201,-0.187C0.201,-0.158 0.208,-0.135 0.223,-0.119C0.238,-0.103 0.258,-0.095 0.283,-0.095L0.283,0.016C0.24,0.016 0.202,0.007 0.169,-0.011C0.135,-0.028 0.108,-0.052 0.089,-0.083C0.07,-0.113 0.06,-0.148 0.06,-0.187Z" style="fill:white;fill-rule:nonzero;"/>
            </g>
            <g transform="matrix(42.027,0,0,42.027,345.189,423.114)">
                <path d="M0.184,-0.605L0.184,-0.715L0.251,-0.715L0.251,-0.605L0.184,-0.605ZM0.184,-0.256L0.184,-0.366L0.251,-0.366L0.251,-0.256L0.184,-0.256ZM0.332,-0.457L0.332,-0.513L0.473,-0.513L0.473,-0.457L0.332,-0.457ZM0.473,-0.513L0.332,-0.513C0.332,-0.542 0.325,-0.565 0.31,-0.581C0.295,-0.597 0.275,-0.605 0.25,-0.605L0.25,-0.715C0.293,-0.715 0.331,-0.706 0.365,-0.689C0.398,-0.672 0.425,-0.648 0.444,-0.617C0.463,-0.586 0.473,-0.552 0.473,-0.513ZM0.473,-0.458C0.473,-0.419 0.463,-0.385 0.444,-0.354C0.425,-0.323 0.398,-0.299 0.365,-0.282C0.331,-0.265 0.293,-0.256 0.25,-0.256L0.25,-0.366C0.275,-0.366 0.295,-0.374 0.31,-0.391C0.325,-0.407 0.332,-0.429 0.332,-0.458L0.473,-0.458ZM0.06,-0L0.06,-0.715L0.201,-0.715L0.201,-0L0.06,-0Z" style="fill:white;fill-rule:nonzero;"/>
            </g>
        </g>
        <g transform="matrix(0.532618,0,0,0.532618,208.491,-86.2859)">
            <g transform="matrix(45.0604,0,0,45.0604,42.3201,381.087)">
                <path d="M0.166,-0.139L0.166,-0.7L0.232,-0.7L0.232,-0.139L0.166,-0.139ZM0.232,-0.139C0.232,-0.09 0.221,-0.052 0.198,-0.025C0.174,0.002 0.142,0.016 0.101,0.016L0.096,-0.047C0.111,-0.047 0.123,-0.051 0.134,-0.058C0.144,-0.065 0.152,-0.076 0.158,-0.09C0.163,-0.103 0.166,-0.12 0.166,-0.139L0.232,-0.139ZM0.049,-0.064C0.056,-0.059 0.064,-0.055 0.071,-0.052C0.079,-0.049 0.087,-0.047 0.096,-0.047L0.101,0.016C0.086,0.016 0.072,0.013 0.058,0.008C0.044,0.003 0.031,-0.003 0.02,-0.012L0.049,-0.064Z" style="fill:white;fill-rule:nonzero;"/>
            </g>
            <g transform="matrix(45.0604,0,0,45.0604,55.4778,381.087)">
                <path d="M0.114,-0.15L0.114,-0.213L0.369,-0.213L0.369,-0.15L0.114,-0.15ZM0.266,-0.7L0.096,-0L0.03,-0L0.2,-0.7L0.266,-0.7ZM0.268,-0.7L0.438,-0L0.372,-0L0.202,-0.7L0.268,-0.7Z" style="fill:white;fill-rule:nonzero;"/>
            </g>
            <g transform="matrix(45.0604,0,0,45.0604,76.5661,381.087)">
                <path d="M0.086,-0.637L0.086,-0.7L0.206,-0.7L0.206,-0.637L0.086,-0.637ZM0.086,-0.279L0.086,-0.342L0.206,-0.342L0.206,-0.279L0.086,-0.279ZM0.324,-0.458L0.324,-0.52L0.39,-0.52L0.39,-0.458L0.324,-0.458ZM0.39,-0.52L0.324,-0.52C0.324,-0.557 0.314,-0.586 0.293,-0.607C0.272,-0.627 0.242,-0.637 0.205,-0.637L0.205,-0.7C0.242,-0.7 0.275,-0.693 0.303,-0.678C0.33,-0.663 0.352,-0.642 0.367,-0.615C0.382,-0.588 0.39,-0.556 0.39,-0.52ZM0.39,-0.459C0.39,-0.423 0.382,-0.392 0.367,-0.365C0.352,-0.338 0.33,-0.317 0.303,-0.302C0.275,-0.286 0.242,-0.279 0.205,-0.279L0.205,-0.342C0.242,-0.342 0.272,-0.352 0.293,-0.373C0.314,-0.394 0.324,-0.422 0.324,-0.459L0.39,-0.459ZM0.06,-0L0.06,-0.7L0.126,-0.7L0.126,-0L0.06,-0Z" style="fill:white;fill-rule:nonzero;"/>
            </g>
            <g transform="matrix(45.0604,0,0,45.0604,93.9144,381.087)">
                <path d="M0.114,-0.15L0.114,-0.213L0.369,-0.213L0.369,-0.15L0.114,-0.15ZM0.266,-0.7L0.096,-0L0.03,-0L0.2,-0.7L0.266,-0.7ZM0.268,-0.7L0.438,-0L0.372,-0L0.202,-0.7L0.268,-0.7Z" style="fill:white;fill-rule:nonzero;"/>
            </g>
            <g transform="matrix(45.0604,0,0,45.0604,115.003,381.087)">
                <path d="M0.355,-0L0.074,-0.7L0.146,-0.7L0.426,-0L0.355,-0ZM0.06,-0L0.06,-0.7L0.126,-0.7L0.126,-0L0.06,-0ZM0.374,-0L0.374,-0.7L0.44,-0.7L0.44,-0L0.374,-0Z" style="fill:white;fill-rule:nonzero;"/>
            </g>
            <g transform="matrix(45.0604,0,0,45.0604,145.644,381.087)">
                <path d="M0.07,-0.066C0.071,-0.112 0.077,-0.152 0.09,-0.185C0.103,-0.218 0.119,-0.248 0.139,-0.273C0.159,-0.298 0.18,-0.321 0.203,-0.342C0.225,-0.363 0.246,-0.384 0.266,-0.405C0.285,-0.426 0.301,-0.449 0.314,-0.473C0.327,-0.499 0.333,-0.528 0.333,-0.561L0.399,-0.561C0.399,-0.519 0.393,-0.483 0.38,-0.453C0.367,-0.423 0.351,-0.397 0.331,-0.374C0.311,-0.35 0.29,-0.329 0.267,-0.309C0.244,-0.288 0.223,-0.267 0.203,-0.245C0.183,-0.222 0.167,-0.197 0.154,-0.169C0.141,-0.14 0.134,-0.106 0.133,-0.066L0.07,-0.066ZM0.07,-0L0.07,-0.066L0.399,-0.066L0.399,-0L0.07,-0ZM0.124,-0.572L0.06,-0.586C0.063,-0.613 0.073,-0.636 0.089,-0.657C0.104,-0.678 0.124,-0.694 0.149,-0.707C0.174,-0.719 0.2,-0.725 0.229,-0.725L0.229,-0.662C0.202,-0.662 0.179,-0.655 0.159,-0.641C0.139,-0.626 0.127,-0.603 0.124,-0.572ZM0.399,-0.56L0.333,-0.56C0.333,-0.589 0.323,-0.614 0.303,-0.633C0.283,-0.652 0.258,-0.662 0.228,-0.662L0.228,-0.725C0.261,-0.725 0.29,-0.718 0.316,-0.704C0.341,-0.689 0.362,-0.67 0.377,-0.645C0.392,-0.62 0.399,-0.591 0.399,-0.56Z" style="fill:white;fill-rule:nonzero;"/>
            </g>
            <g transform="matrix(45.0604,0,0,45.0604,167.904,381.087)">
                <path d="M0.331,-0.165L0.331,-0.535L0.397,-0.535L0.397,-0.165L0.331,-0.165ZM0.055,-0.165L0.055,-0.535L0.121,-0.535L0.121,-0.165L0.055,-0.165ZM0.224,-0.652L0.224,-0.715L0.228,-0.715L0.228,-0.652L0.224,-0.652ZM0.224,0.015L0.224,-0.048L0.228,-0.048L0.228,0.015L0.224,0.015ZM0.055,-0.535C0.055,-0.57 0.063,-0.601 0.078,-0.627C0.093,-0.655 0.113,-0.676 0.139,-0.692C0.164,-0.707 0.193,-0.715 0.226,-0.715L0.226,-0.652C0.193,-0.652 0.168,-0.642 0.149,-0.622C0.13,-0.601 0.121,-0.572 0.121,-0.535L0.055,-0.535ZM0.397,-0.535L0.331,-0.535C0.331,-0.572 0.322,-0.601 0.304,-0.622C0.285,-0.642 0.259,-0.652 0.226,-0.652L0.226,-0.715C0.259,-0.715 0.288,-0.707 0.314,-0.692C0.339,-0.676 0.36,-0.655 0.375,-0.627C0.39,-0.601 0.397,-0.57 0.397,-0.535ZM0.055,-0.165L0.121,-0.165C0.121,-0.128 0.13,-0.1 0.149,-0.079C0.168,-0.058 0.193,-0.048 0.226,-0.048L0.226,0.015C0.193,0.015 0.164,0.007 0.139,-0.009C0.113,-0.024 0.093,-0.046 0.078,-0.073C0.063,-0.1 0.055,-0.13 0.055,-0.165ZM0.397,-0.165C0.397,-0.13 0.39,-0.1 0.375,-0.073C0.36,-0.046 0.339,-0.024 0.314,-0.009C0.288,0.007 0.259,0.015 0.226,0.015L0.226,-0.048C0.259,-0.048 0.285,-0.058 0.304,-0.079C0.322,-0.1 0.331,-0.128 0.331,-0.165L0.397,-0.165Z" style="fill:white;fill-rule:nonzero;"/>
            </g>
            <g transform="matrix(45.0604,0,0,45.0604,190.524,381.087)">
                <path d="M0.07,-0.066C0.071,-0.112 0.077,-0.152 0.09,-0.185C0.103,-0.218 0.119,-0.248 0.139,-0.273C0.159,-0.298 0.18,-0.321 0.203,-0.342C0.225,-0.363 0.246,-0.384 0.266,-0.405C0.285,-0.426 0.301,-0.449 0.314,-0.473C0.327,-0.499 0.333,-0.528 0.333,-0.561L0.399,-0.561C0.399,-0.519 0.393,-0.483 0.38,-0.453C0.367,-0.423 0.351,-0.397 0.331,-0.374C0.311,-0.35 0.29,-0.329 0.267,-0.309C0.244,-0.288 0.223,-0.267 0.203,-0.245C0.183,-0.222 0.167,-0.197 0.154,-0.169C0.141,-0.14 0.134,-0.106 0.133,-0.066L0.07,-0.066ZM0.07,-0L0.07,-0.066L0.399,-0.066L0.399,-0L0.07,-0ZM0.124,-0.572L0.06,-0.586C0.063,-0.613 0.073,-0.636 0.089,-0.657C0.104,-0.678 0.124,-0.694 0.149,-0.707C0.174,-0.719 0.2,-0.725 0.229,-0.725L0.229,-0.662C0.202,-0.662 0.179,-0.655 0.159,-0.641C0.139,-0.626 0.127,-0.603 0.124,-0.572ZM0.399,-0.56L0.333,-0.56C0.333,-0.589 0.323,-0.614 0.303,-0.633C0.283,-0.652 0.258,-0.662 0.228,-0.662L0.228,-0.725C0.261,-0.725 0.29,-0.718 0.316,-0.704C0.341,-0.689 0.362,-0.67 0.377,-0.645C0.392,-0.62 0.399,-0.591 0.399,-0.56Z" style="fill:white;fill-rule:nonzero;"/>
            </g>
            <g transform="matrix(45.0604,0,0,45.0604,212.784,381.087)">
                <path d="M0.218,-0.339L0.218,-0.402C0.245,-0.402 0.268,-0.414 0.286,-0.438C0.305,-0.462 0.314,-0.492 0.314,-0.529L0.38,-0.529C0.38,-0.493 0.373,-0.461 0.359,-0.432C0.345,-0.403 0.326,-0.381 0.302,-0.364C0.277,-0.347 0.249,-0.339 0.218,-0.339ZM0.323,-0.148L0.323,-0.237L0.389,-0.237L0.389,-0.148L0.323,-0.148ZM0.157,-0.339L0.157,-0.402L0.219,-0.402L0.219,-0.339L0.157,-0.339ZM0.314,-0.528C0.314,-0.563 0.305,-0.593 0.286,-0.617C0.268,-0.64 0.245,-0.652 0.218,-0.652L0.218,-0.715C0.249,-0.715 0.277,-0.707 0.302,-0.691C0.326,-0.674 0.345,-0.652 0.359,-0.624C0.373,-0.596 0.38,-0.564 0.38,-0.528L0.314,-0.528ZM0.389,-0.149C0.389,-0.118 0.382,-0.09 0.367,-0.065C0.352,-0.04 0.331,-0.02 0.306,-0.006C0.28,0.009 0.251,0.016 0.218,0.016L0.218,-0.047C0.248,-0.047 0.273,-0.057 0.293,-0.077C0.313,-0.096 0.323,-0.12 0.323,-0.149L0.389,-0.149ZM0.389,-0.237L0.323,-0.237C0.323,-0.266 0.313,-0.291 0.293,-0.31C0.273,-0.329 0.248,-0.339 0.218,-0.339L0.218,-0.402C0.251,-0.402 0.28,-0.395 0.306,-0.381C0.331,-0.366 0.352,-0.346 0.367,-0.322C0.382,-0.297 0.389,-0.268 0.389,-0.237ZM0.114,-0.562L0.05,-0.576C0.053,-0.603 0.063,-0.626 0.079,-0.647C0.094,-0.668 0.114,-0.684 0.139,-0.697C0.164,-0.709 0.19,-0.715 0.219,-0.715L0.219,-0.652C0.192,-0.652 0.169,-0.645 0.149,-0.63C0.129,-0.616 0.117,-0.593 0.114,-0.562ZM0.114,-0.137C0.117,-0.106 0.129,-0.084 0.149,-0.069C0.169,-0.054 0.192,-0.047 0.219,-0.047L0.219,0.016C0.19,0.016 0.164,0.01 0.139,-0.003C0.114,-0.015 0.094,-0.032 0.079,-0.053C0.063,-0.074 0.053,-0.097 0.05,-0.123L0.114,-0.137Z" style="fill:white;fill-rule:nonzero;"/>
            </g>
        </g>
        <g transform="matrix(0.23294,0,0,0.738457,169.438,27.7993)">
            <rect x="66.195" y="105.978" width="176.855" height="5.743" style="fill:url(#_Linear1);"/>
        </g>
        <g transform="matrix(0.989207,0,0,0.989207,37.2992,-0.596195)">
            <g transform="matrix(5.0581,0,0,5.0581,5.99896,23.2085)">
                <path d="M20.247,3.034C20.178,3.016 18.505,2.601 16.195,2.601C13.353,2.601 9.327,3.241 6.285,6.288C0.945,11.637 2.945,19.898 3.033,20.248C3.123,20.605 3.403,20.885 3.761,20.974C3.83,20.992 5.487,21.4 7.779,21.4C10.628,21.4 14.663,20.759 17.711,17.712C23.046,12.377 21.062,4.112 20.975,3.763C20.885,3.405 20.605,3.125 20.247,3.034ZM16.71,12.296L15.296,13.71L13.503,11.918L11.917,13.504L13.709,15.297L12.295,16.711L10.503,14.918L8.71,16.711L7.296,15.297L9.089,13.504L7.296,11.71L8.71,10.296L10.503,12.09L12.089,10.504L10.295,8.711L11.709,7.297L13.503,9.09L15.296,7.297L16.71,8.711L14.917,10.504L16.71,12.296Z" style="fill-rule:nonzero;"/>
            </g>
            <g transform="matrix(5.0581,0,0,5.0581,1.15358,18.3433)">
                <path d="M20.247,3.034C20.178,3.016 18.505,2.601 16.195,2.601C13.353,2.601 9.327,3.241 6.285,6.288C0.945,11.637 2.945,19.898 3.033,20.248C3.123,20.605 3.403,20.885 3.761,20.974C3.83,20.992 5.487,21.4 7.779,21.4C10.628,21.4 14.663,20.759 17.711,17.712C23.046,12.377 21.062,4.112 20.975,3.763C20.885,3.405 20.605,3.125 20.247,3.034ZM16.71,12.296L15.296,13.71L13.503,11.918L11.917,13.504L13.709,15.297L12.295,16.711L10.503,14.918L8.71,16.711L7.296,15.297L9.089,13.504L7.296,11.71L8.71,10.296L10.503,12.09L12.089,10.504L10.295,8.711L11.709,7.297L13.503,9.09L15.296,7.297L16.71,8.711L14.917,10.504L16.71,12.296Z" style="fill:white;fill-rule:nonzero;"/>
            </g>
        </g>
    </g>
    <defs>
        <linearGradient id="_Linear1" x1="0" y1="0" x2="1" y2="0" gradientUnits="userSpaceOnUse" gradientTransform="matrix(176.855,0,0,88.2399,66.1947,108.85)"><stop offset="0" style="stop-color:rgb(253,36,99);stop-opacity:1"/><stop offset="1" style="stop-color:rgb(246,157,0);stop-opacity:1"/></linearGradient>
    </defs>
</svg>
