<svg viewBox="0 0 99 30" xmlns="http://www.w3.org/2000/svg" xml:space="preserve" style="fill-rule:evenodd;clip-rule:evenodd;stroke-linejoin:round;stroke-miterlimit:2"><circle cx="484.378" cy="285.483" r="8.645" style="fill:#fff" transform="translate(-226.633 -127.537) scale(.49824)"/><path d="M484.378 275.644c-5.431 0-9.84 4.409-9.84 9.839 0 5.431 4.409 9.84 9.84 9.84 5.43 0 9.839-4.409 9.839-9.84 0-5.43-4.409-9.839-9.839-9.839Zm0 1.194c4.771 0 8.645 3.874 8.645 8.645 0 4.772-3.874 8.646-8.645 8.646-4.772 0-8.646-3.874-8.646-8.646 0-4.771 3.874-8.645 8.646-8.645Z" style="fill:#fff" transform="matrix(1.49416 0 0 1.49416 -709.033 -411.854)"/><path d="M484.378 272.644c-7.086 0-12.839 5.753-12.839 12.839s5.753 12.839 12.839 12.839 12.839-5.753 12.839-12.839-5.753-12.839-12.839-12.839Zm0 4.194c4.771 0 8.645 3.874 8.645 8.645 0 4.772-3.874 8.646-8.645 8.646-4.772 0-8.646-3.874-8.646-8.646 0-4.771 3.874-8.645 8.646-8.645Z" style="fill:#fff" transform="translate(-261.137 -162.273) scale(.59614)"/><path d="M.074-.7V0h.169v-.293h.301V0h.169v-.7H.544v.255H.243V-.7H.074Z" style="fill:#fff;fill-rule:nonzero" transform="translate(37.275 15.143) scale(16.845)"/><path d="M.467-.7.33-.437.194-.7h-.195l.245.416V0h.173v-.285L.662-.7H.467Z" style="fill:#fff;fill-rule:nonzero" transform="translate(50.516 15.143) scale(16.845)"/><path d="M.324 0c.229 0 .375-.135.375-.35C.699-.565.553-.7.324-.7h-.25V0h.25ZM.318-.549c.108 0 .206.049.206.199 0 .15-.098.199-.206.199H.249v-.398h.069Z" style="fill:#fff;fill-rule:nonzero" transform="translate(61.634 15.143) scale(16.845)"/><path d="M.074-.7V0h.169v-.242h.052L.445 0h.199L.462-.264a.21.21 0 0 0 .14-.207C.602-.606.508-.7.329-.7H.074Zm.243.144c.068 0 .109.033.109.091 0 .058-.041.091-.109.091H.243v-.182h.074Z" style="fill:#fff;fill-rule:nonzero" transform="translate(73.98 15.143) scale(16.845)"/><path d="M.034-.35c0 .216.157.372.377.372S.788-.134.788-.35.627-.716.411-.716c-.213 0-.377.15-.377.366Zm.179 0c0-.124.079-.211.198-.211.122 0 .197.087.197.211S.53-.139.411-.139C.292-.139.213-.226.213-.35Z" style="fill:#fff;fill-rule:nonzero" transform="translate(84.88 15.143) scale(16.845)"/><path d="M.62-.197c0-.095-.061-.151-.141-.179C.542-.404.58-.454.58-.522.58-.641.476-.7.332-.7H.074V0h.274C.514 0 .62-.058.62-.197ZM.313-.569c.058 0 .092.025.092.072 0 .047-.034.075-.092.075h-.07v-.147h.07Zm-.07.438v-.173h.086c.065 0 .116.022.116.083 0 .067-.051.09-.116.09H.243Z" style="fill:#fff;fill-rule:nonzero" transform="translate(37.275 28.316) scale(16.845)"/><path style="fill:#fff;fill-rule:nonzero" d="M.074-.7h.172V0H.074z" transform="translate(48.462 28.316) scale(16.845)"/><path d="M.074-.7V0h.45v-.146H.243V-.7H.074Z" style="fill:#fff;fill-rule:nonzero" transform="translate(53.85 28.316) scale(16.845)"/><path style="fill:#fff;fill-rule:nonzero" d="M.074-.7h.172V0H.074z" transform="translate(62.746 28.316) scale(16.845)"/><path d="M.004-.548h.192V0h.17v-.548h.192V-.7H.004v.152Z" style="fill:#fff;fill-rule:nonzero" transform="translate(68.136 28.316) scale(16.845)"/><path d="M.467-.7.33-.437.194-.7h-.195l.245.416V0h.173v-.285L.662-.7H.467Z" style="fill:#fff;fill-rule:nonzero" transform="translate(78.092 28.316) scale(16.845)"/></svg>
