<svg viewBox="0 0 56 29" xmlns="http://www.w3.org/2000/svg" xml:space="preserve" style="fill-rule:evenodd;clip-rule:evenodd;stroke-linejoin:round;stroke-miterlimit:2"><path style="fill:#fff" d="M427.184 271.57h54.191v24.509h-54.191z" transform="matrix(1.02978 0 0 1.18267 -439.908 -321.18)"/><circle cx="448.842" cy="285.278" r="10.801" style="fill:#00f5ef" transform="translate(-503.36 -321.053) scale(1.1762)"/><circle cx="448.842" cy="285.278" r="10.801" style="fill:#00e1ef" transform="translate(-495.66 -321.053) scale(1.1762)"/><circle cx="448.842" cy="285.278" r="10.801" style="fill:#00bfef" transform="translate(-487.96 -321.053) scale(1.1762)"/><path d="m.177-.727.194.549.183-.549h.184L.466 0H.269l-.272-.727h.18Z" style="fill:#004f93;fill-rule:nonzero" transform="matrix(11.62571 0 0 11.62571 2.99 18.66)"/><path d="M.723-.273v.027a.361.361 0 0 1-.016.116.192.192 0 0 1-.052.079.212.212 0 0 1-.09.045.51.51 0 0 1-.132.015H.351a.51.51 0 0 1-.132-.015.223.223 0 0 1-.091-.046.193.193 0 0 1-.052-.082.381.381 0 0 1-.017-.12v-.217c0-.047.006-.088.017-.121a.187.187 0 0 1 .052-.082.225.225 0 0 1 .091-.047.51.51 0 0 1 .132-.015h.082a.5.5 0 0 1 .132.015c.037.01.067.025.09.045.024.02.041.044.052.073a.286.286 0 0 1 .016.101v.033H.547v-.019a.136.136 0 0 0-.008-.049.068.068 0 0 0-.025-.03.11.11 0 0 0-.044-.016.365.365 0 0 0-.063-.005H.379a.316.316 0 0 0-.066.006.086.086 0 0 0-.044.021.098.098 0 0 0-.026.046.304.304 0 0 0-.008.076v.154c0 .031.003.056.008.075a.09.09 0 0 0 .026.044.103.103 0 0 0 .047.022.34.34 0 0 0 .069.006h.026a.372.372 0 0 0 .062-.004.115.115 0 0 0 .042-.015.068.068 0 0 0 .024-.033.164.164 0 0 0 .008-.055v-.028h.176Z" style="fill:#004f93;fill-rule:nonzero" transform="matrix(11.62571 0 0 11.62571 13.776 18.66)"/><path d="M.489-.291.391-.593h-.02l-.099.302h.217Zm-.257.139L.18 0h-.184l.256-.727h.259L.766 0H.583L.531-.152H.232Z" style="fill:#004f93;fill-rule:nonzero" transform="matrix(11.62571 0 0 11.62571 22.797 18.66)"/><path d="M.561-.161A.186.186 0 0 0 .554-.22.066.066 0 0 0 .53-.254a.088.088 0 0 0-.043-.015.403.403 0 0 0-.065-.004H.255V0H.082v-.727h.432c.072 0 .126.017.161.051.035.035.052.089.052.164a.223.223 0 0 1-.026.12.12.12 0 0 1-.074.056.166.166 0 0 1 .052.021.1.1 0 0 1 .033.035.14.14 0 0 1 .017.05.436.436 0 0 1 .005.067V0H.561v-.161ZM.464-.404A.147.147 0 0 0 .51-.41a.055.055 0 0 0 .026-.018.062.062 0 0 0 .013-.031.285.285 0 0 0-.002-.089.056.056 0 0 0-.016-.028A.082.082 0 0 0 .5-.592a.235.235 0 0 0-.05-.004H.255v.192h.209Z" style="fill:#004f93;fill-rule:nonzero" transform="matrix(11.62571 0 0 11.62571 31.669 18.66)"/><path d="M.082 0v-.727h.374c.051 0 .096.005.132.015a.202.202 0 0 1 .09.046.18.18 0 0 1 .052.081.394.394 0 0 1 .016.121v.204a.348.348 0 0 1-.017.119.187.187 0 0 1-.051.081.226.226 0 0 1-.09.046A.562.562 0 0 1 .456 0H.082Zm.173-.147h.172a.404.404 0 0 0 .066-.005.087.087 0 0 0 .044-.022.083.083 0 0 0 .025-.044.284.284 0 0 0 .008-.073v-.142a.301.301 0 0 0-.008-.075.09.09 0 0 0-.026-.044.085.085 0 0 0-.046-.021.358.358 0 0 0-.07-.006H.255v.432Z" style="fill:#004f93;fill-rule:nonzero" transform="matrix(11.62571 0 0 11.62571 40.888 18.66)"/></svg>
