<svg viewBox="0 0 79 29" xmlns="http://www.w3.org/2000/svg" xml:space="preserve" style="fill-rule:evenodd;clip-rule:evenodd;stroke-linejoin:round;stroke-miterlimit:2"><path style="fill:#028ac2" d="M357.761 269.32h54.943v29.01h-54.943z" transform="matrix(1.42673 0 0 .99918 -510.428 -269.1)"/><path d="M.383 0 .242-.307l-.061.048L.136 0H0l.126-.719h.136l-.048.276.395-.306a.135.135 0 0 1 .014.037.19.19 0 0 1 .005.039.114.114 0 0 1-.016.063.186.186 0 0 1-.044.05 4.04 4.04 0 0 1-.103.08L.361-.4l.185.4H.383Z" style="fill:#fff;fill-rule:nonzero" transform="translate(4.39 16.194) scale(11.85574)"/><path d="M.302-.353.24 0H.093l.062-.353-.157-.365h.159l.098.227.206-.263a.129.129 0 0 1 .048.099.105.105 0 0 1-.009.044.192.192 0 0 1-.022.039 1.912 1.912 0 0 1-.087.11l-.089.109Z" style="fill:#fff;fill-rule:nonzero" transform="translate(12.38 16.194) scale(11.85574)"/><path d="M.273.001A.218.218 0 0 1 .094-.08a.33.33 0 0 1-.061-.192c0-.024.003-.049.008-.076l.073-.37h.133L.184-.36l-.003.024-.001.024c0 .02.002.04.007.06a.174.174 0 0 0 .023.056c.011.017.024.03.041.041a.102.102 0 0 0 .059.016.145.145 0 0 0 .076-.021.306.306 0 0 0 .131-.2L.58-.718h.133L.65-.36a.983.983 0 0 1-.034.132.379.379 0 0 1-.064.115.302.302 0 0 1-.106.082.39.39 0 0 1-.163.032h-.01Z" style="fill:#fff;fill-rule:nonzero" transform="translate(18.628 16.194) scale(11.85574)"/><path d="M.505-.535a.11.11 0 0 1-.037-.006.345.345 0 0 1-.034-.014L.403-.569a.09.09 0 0 0-.032-.006.21.21 0 0 0-.087.018.112.112 0 0 0-.037.026.056.056 0 0 0-.015.039.04.04 0 0 0 .011.03.067.067 0 0 0 .026.021c.01.005.021.009.033.011a.133.133 0 0 0 .032.004.264.264 0 0 1 .148.047.175.175 0 0 1 .051.057.152.152 0 0 1 .019.077.213.213 0 0 1-.026.103.289.289 0 0 1-.164.13.299.299 0 0 1-.239-.013.5.5 0 0 1-.059-.034 1.586 1.586 0 0 0-.06-.036.306.306 0 0 1 .052-.056.11.11 0 0 1 .071-.024c.014 0 .027.002.04.006l.036.014.039.014a.109.109 0 0 0 .04.007.162.162 0 0 0 .04-.006.165.165 0 0 0 .042-.016.106.106 0 0 0 .033-.026.052.052 0 0 0 .013-.036.055.055 0 0 0-.01-.031.086.086 0 0 0-.026-.02.219.219 0 0 0-.033-.012.2.2 0 0 0-.032-.003.266.266 0 0 1-.149-.047.172.172 0 0 1-.05-.057.155.155 0 0 1-.019-.078c0-.036.009-.069.026-.1a.282.282 0 0 1 .158-.132.283.283 0 0 1 .234.014c.02.01.04.021.059.033l.06.036a.276.276 0 0 1-.053.055.104.104 0 0 1-.07.025Z" style="fill:#fff;fill-rule:nonzero" transform="translate(26.607 16.194) scale(11.85574)"/><path d="M.187-.288.136 0H0l.127-.718h.137l-.052.292h.289l.051-.292H.69L.563 0H.427l.062-.353a.159.159 0 0 1-.05.047.124.124 0 0 1-.067.018H.187Z" style="fill:#fff;fill-rule:nonzero" transform="translate(34.195 16.194) scale(11.85574)"/><path d="M.273.001A.218.218 0 0 1 .094-.08a.33.33 0 0 1-.061-.192c0-.024.003-.049.008-.076l.073-.37h.133L.184-.36l-.003.024-.001.024c0 .02.002.04.007.06a.174.174 0 0 0 .023.056c.011.017.024.03.041.041a.102.102 0 0 0 .059.016.145.145 0 0 0 .076-.021.306.306 0 0 0 .131-.2L.58-.718h.133L.65-.36a.983.983 0 0 1-.034.132.379.379 0 0 1-.064.115.302.302 0 0 1-.106.082.39.39 0 0 1-.163.032h-.01Z" style="fill:#fff;fill-rule:nonzero" transform="translate(42.375 16.194) scale(11.85574)"/><path d="M.547 0H.445L.387-.621l-.139.299h.147a.117.117 0 0 1-.028.057.124.124 0 0 1-.046.029.199.199 0 0 1-.056.01l-.06.001L.103 0H0l.163-.359.16-.359h.154c.013.12.025.24.035.359.01.119.022.239.035.359Z" style="fill:#fff;fill-rule:nonzero" transform="matrix(11.6135 0 0 11.6135 4.39 25.466)"/><path d="M.098 0H0l.126-.718h.098L.098 0Z" style="fill:#fff;fill-rule:nonzero" transform="matrix(11.6135 0 0 11.6135 11.869 25.466)"/><path d="M.567-.006a.104.104 0 0 1-.043.009.08.08 0 0 1-.052-.019.1.1 0 0 1-.03-.046l-.08-.255H.311a.19.19 0 0 1-.054-.007.086.086 0 0 1-.042-.023C.204-.358.198-.375.198-.397v-.009l.001-.008h.188a.136.136 0 0 0 .048-.009.114.114 0 0 0 .043-.024.104.104 0 0 0 .032-.037.086.086 0 0 0 .013-.048.087.087 0 0 0-.008-.037.1.1 0 0 0-.023-.027.109.109 0 0 0-.069-.023H.208L.099.002H.001l.126-.718h.327a.193.193 0 0 1 .118.049.185.185 0 0 1 .037.051c.009.02.013.042.013.066a.2.2 0 0 1-.047.13.29.29 0 0 1-.111.084l.103.33Z" style="fill:#fff;fill-rule:nonzero" transform="matrix(11.6135 0 0 11.6135 15.12 25.466)"/><path d="m.684-.718-.221.709L.465 0H.367L.366-.004H.364l.001-.005-.066-.372L.097 0h-.098l.002-.004H0l.03-.714h.098l-.022.516.141-.266a.052.052 0 0 1 .028-.027.114.114 0 0 1 .039-.006h.021l.021.003a.038.038 0 0 1 .026.03l.046.258.157-.508h.099Z" style="fill:#fff;fill-rule:nonzero" transform="matrix(11.6135 0 0 11.6135 22.564 25.466)"/><path d="M.547 0H.445L.387-.621l-.139.299h.147a.117.117 0 0 1-.028.057.124.124 0 0 1-.046.029.199.199 0 0 1-.056.01l-.06.001L.103 0H0l.163-.359.16-.359h.154c.013.12.025.24.035.359.01.119.022.239.035.359Z" style="fill:#fff;fill-rule:nonzero" transform="matrix(11.6135 0 0 11.6135 29.184 25.466)"/><path d="M.471-.744a.08.08 0 0 1 .023.03.107.107 0 0 1 .008.037.099.099 0 0 1-.009.042.206.206 0 0 1-.023.037 3.668 3.668 0 0 1-.097.121 2.807 2.807 0 0 0-.099.118L.211 0H.1l.063-.359-.16-.357h.115l.117.261h.006l.23-.289Z" style="fill:#fff;fill-rule:nonzero" transform="matrix(11.6135 0 0 11.6135 35.386 25.466)"/><path d="M.37-.616a.317.317 0 0 0-.058.006.304.304 0 0 0-.06.021.157.157 0 0 0-.047.037.087.087 0 0 0-.018.055c0 .016.005.03.014.041a.13.13 0 0 0 .077.045c.015.003.03.005.043.005.025 0 .051.004.077.011a.22.22 0 0 1 .071.033.178.178 0 0 1 .051.055c.013.022.02.047.02.076a.183.183 0 0 1-.027.098.294.294 0 0 1-.165.123.323.323 0 0 1-.169.009.316.316 0 0 1-.061-.022.782.782 0 0 1-.057-.03 11.688 11.688 0 0 0-.059-.034.14.14 0 0 1 .04-.037.1.1 0 0 1 .052-.013c.014 0 .028.002.041.007l.04.015.043.015a.15.15 0 0 0 .048.007.228.228 0 0 0 .11-.031.157.157 0 0 0 .043-.038.085.085 0 0 0 .017-.052.063.063 0 0 0-.013-.041.13.13 0 0 0-.078-.044.218.218 0 0 0-.042-.005.263.263 0 0 1-.147-.045.182.182 0 0 1-.052-.055.146.146 0 0 1-.02-.076c0-.035.009-.067.026-.096a.255.255 0 0 1 .068-.075.333.333 0 0 1 .189-.066.301.301 0 0 1 .128.029c.019.009.038.02.057.031l.058.034a.137.137 0 0 1-.04.036.108.108 0 0 1-.091.007.217.217 0 0 1-.035-.015L.408-.61A.12.12 0 0 0 .37-.616Z" style="fill:#fff;fill-rule:nonzero" transform="matrix(11.6135 0 0 11.6135 41.9 25.466)"/><g><path d="M257.368-112.801h43.09L137.731 170.915c-25.163 25.516-60.438 33.843-90.303 35.611l209.94-319.327Z" style="fill:#fff;fill-rule:nonzero" transform="matrix(-.01085 .0489 .0489 .01085 62.807 6.704)"/><path d="M-9.681 35.984H257.19c31.129 7.947 54.422 29.881 70.862 52.278L1.919 60.828l-11.6-24.844Z" style="fill:#fff;fill-rule:nonzero" transform="matrix(.0489 -.01086 -.01086 -.0489 54.392 24.094)"/><path d="M-1.686 5.929h153.777c34.481 8.606 59.469 34.374 76.189 59L4.736 29.111-1.686 5.929Z" style="fill:#fff;fill-rule:nonzero" transform="matrix(.05002 -.0026 -.0026 -.05002 53.195 24.681)"/><path d="m0 354.121 20.784-150.509a64.324 64.324 0 0 1 37.221-49.813L494.77-43.642s0 98.538-63.194 138.168L58.845 236.216 22.932 397.763 5.996 376.239A29.29 29.29 0 0 1 0 354.121" style="fill:#fff;fill-rule:nonzero" transform="matrix(.0501 0 0 .0501 50.842 5.622)"/></g></svg>
